<svg xmlns="http://www.w3.org/2000/svg" xmlns:xlink="http://www.w3.org/1999/xlink" viewBox="0 0 1920 1080"><defs><style>.cls-1{fill:url(#linear-gradient);}.cls-2{fill:url(#linear-gradient-2);}.cls-3{fill:url(#linear-gradient-3);}.cls-4{fill:url(#linear-gradient-4);}.cls-5{fill:url(#linear-gradient-5);}.cls-6{fill:none;}</style><linearGradient id="linear-gradient" x1="345.64" y1="505.89" x2="345.64" y2="398.07" gradientUnits="userSpaceOnUse"><stop offset="0" stop-color="#5a41dc"/><stop offset="1" stop-color="#2d20ab"/></linearGradient><linearGradient id="linear-gradient-2" x1="478.13" y1="533.84" x2="478.13" y2="406.48" xlink:href="#linear-gradient"/><linearGradient id="linear-gradient-3" x1="324.65" y1="533.84" x2="324.65" y2="406.48" gradientTransform="matrix(-1, 0, 0, 1, 537.8, 0)" xlink:href="#linear-gradient"/><linearGradient id="linear-gradient-4" x1="586.76" y1="637.16" x2="586.76" y2="453.97" xlink:href="#linear-gradient"/><linearGradient id="linear-gradient-5" x1="385.38" y1="637.16" x2="385.38" y2="453.97" gradientTransform="matrix(-1, 0, 0, 1, 489.9, 0)" xlink:href="#linear-gradient"/></defs><title>Asset 16</title><g id="Layer_2" data-name="Layer 2"><g id="Layer_27" data-name="Layer 27"><g id="Layer_22_copy" data-name="Layer 22 copy"><path class="cls-1" d="M302.23,505.83V400.19a.39.39,0,0,1,.36-.39c14-1.14,28.39-1.73,43.05-1.73s29,.59,43.05,1.73a.4.4,0,0,1,.36.39v105.7c-14.13-1.16-28.63-1.76-43.41-1.76s-29.29.6-43.41,1.76"/><path class="cls-2" d="M441.66,513.09a386.74,386.74,0,0,1,70.76,20.46,3.85,3.85,0,0,0,5.34-3.55V429.89a.35.35,0,0,0-.24-.33c-23.12-9.8-49.64-17.66-78.55-23.08a.39.39,0,0,0-.46.38V509.3A3.86,3.86,0,0,0,441.66,513.09Z"/><path class="cls-3" d="M249.62,513.09a386.74,386.74,0,0,0-70.76,20.46,3.85,3.85,0,0,1-5.34-3.55V429.89a.35.35,0,0,1,.24-.33c23.12-9.8,49.64-17.66,78.55-23.08a.4.4,0,0,1,.47.38V509.3A3.87,3.87,0,0,1,249.62,513.09Z"/><path class="cls-4" d="M611.16,629.11V523a.13.13,0,0,0,0-.06c-3.07-25.6-20.63-49.25-48.64-68.93a.4.4,0,0,0-.63.32V559.5a.39.39,0,0,0,.17.31c31.21,21.8,49.59,48.5,49.59,77.35"/><path class="cls-5" d="M80.12,629.11V523c3.08-25.6,20.64-49.25,48.64-68.93a.4.4,0,0,1,.63.32V559.5a.38.38,0,0,1-.16.31c-31.22,21.8-49.59,48.5-49.59,77.35"/></g><rect class="cls-6" width="1920" height="1080"/></g></g></svg>