<svg xmlns="http://www.w3.org/2000/svg" xmlns:xlink="http://www.w3.org/1999/xlink" viewBox="0 0 1920 1080"><defs><style>.cls-1{fill:url(#linear-gradient);}.cls-2{fill:url(#linear-gradient-2);}.cls-3{fill:url(#linear-gradient-3);}.cls-4{fill:url(#linear-gradient-4);}.cls-5{fill:url(#linear-gradient-5);}.cls-6{fill:none;}</style><linearGradient id="linear-gradient" x1="345.64" y1="770.46" x2="345.64" y2="662.64" gradientUnits="userSpaceOnUse"><stop offset="0" stop-color="#fdb58d"/><stop offset="1" stop-color="#ffe67f"/></linearGradient><linearGradient id="linear-gradient-2" x1="478.13" y1="762.05" x2="478.13" y2="634.69" xlink:href="#linear-gradient"/><linearGradient id="linear-gradient-3" x1="213.15" y1="762.05" x2="213.15" y2="634.69" xlink:href="#linear-gradient"/><linearGradient id="linear-gradient-4" x1="586.58" y1="712.24" x2="586.58" y2="566.08" xlink:href="#linear-gradient"/><linearGradient id="linear-gradient-5" x1="104.69" y1="712.24" x2="104.69" y2="566.08" xlink:href="#linear-gradient"/></defs><title>Asset 17</title><g id="Layer_2" data-name="Layer 2"><g id="Layer_27" data-name="Layer 27"><g id="Layer_23_copy" data-name="Layer 23 copy"><path class="cls-1" d="M302.23,662.7V768.34a.39.39,0,0,0,.36.39c14,1.14,28.39,1.73,43.05,1.73s29-.59,43.05-1.73a.39.39,0,0,0,.36-.39V662.64c-14.13,1.16-28.63,1.76-43.41,1.76s-29.28-.6-43.41-1.76"/><path class="cls-2" d="M441.66,655.44A387.09,387.09,0,0,0,512.43,635a3.85,3.85,0,0,1,5.33,3.55V738.64a.35.35,0,0,1-.24.33c-23.12,9.8-49.64,17.66-78.55,23.08a.39.39,0,0,1-.46-.38V659.23A3.87,3.87,0,0,1,441.66,655.44Z"/><path class="cls-3" d="M249.63,655.44A386.62,386.62,0,0,1,178.86,635a3.85,3.85,0,0,0-5.34,3.55V738.64a.35.35,0,0,0,.24.33c23.12,9.8,49.64,17.66,78.55,23.08a.4.4,0,0,0,.47-.38V659.23A3.87,3.87,0,0,0,249.63,655.44Z"/><path class="cls-4" d="M564.7,711.85V606.73a.37.37,0,0,1,.16-.31c15.95-11.59,28.33-24.5,36.34-38.33a3.87,3.87,0,0,1,7.27,1.84v87.8a.29.29,0,0,1,0,.09c-6.22,19.93-21.28,38.39-43.11,54.34A.4.4,0,0,1,564.7,711.85Z"/><path class="cls-5" d="M126.57,711.85V606.73a.37.37,0,0,0-.16-.31c-16-11.59-28.33-24.5-36.33-38.33a3.87,3.87,0,0,0-7.27,1.84v87.8a.15.15,0,0,0,0,.09c6.21,19.93,21.27,38.39,43.11,54.34A.39.39,0,0,0,126.57,711.85Z"/></g><rect class="cls-6" width="1920" height="1080"/></g></g></svg>