<svg xmlns="http://www.w3.org/2000/svg" xmlns:xlink="http://www.w3.org/1999/xlink" viewBox="0 0 1920 1080"><defs><style>.cls-1{fill:url(#linear-gradient);}.cls-2{fill:url(#linear-gradient-2);}.cls-3{fill:url(#linear-gradient-3);}.cls-4{fill:none;stroke-linecap:round;stroke-linejoin:round;stroke-width:3px;stroke:url(#linear-gradient-4);}</style><linearGradient id="linear-gradient" x1="1490.42" y1="614.52" x2="1549.97" y2="614.52" gradientUnits="userSpaceOnUse"><stop offset="0" stop-color="#0d0b52"/><stop offset="1" stop-color="#5740d9"/></linearGradient><linearGradient id="linear-gradient-2" x1="1490.42" y1="610.49" x2="1549.97" y2="610.49" gradientUnits="userSpaceOnUse"><stop offset="0" stop-color="#5740d9"/><stop offset="1" stop-color="#21c7f9"/></linearGradient><linearGradient id="linear-gradient-3" x1="1490.42" y1="606.46" x2="1549.97" y2="606.46" xlink:href="#linear-gradient"/><linearGradient id="linear-gradient-4" x1="1510.64" y1="604.57" x2="1533.79" y2="604.57" xlink:href="#linear-gradient-2"/></defs><title>left_button</title><g id="Text"><path class="cls-1" d="M1519.3,598.85l-27.77,13.88a2,2,0,0,0,0,3.58l27.77,13.89a2,2,0,0,0,1.79,0l27.77-13.89a2,2,0,0,0,0-3.58l-27.77-13.88A2,2,0,0,0,1519.3,598.85Z"/><path class="cls-2" d="M1519.3,594.82l-27.77,13.88a2,2,0,0,0,0,3.58l27.77,13.89a2,2,0,0,0,1.79,0l27.77-13.89a2,2,0,0,0,0-3.58l-27.77-13.88A2,2,0,0,0,1519.3,594.82Z"/><path class="cls-3" d="M1519.3,590.79l-27.77,13.88a2,2,0,0,0,0,3.58l27.77,13.89a2,2,0,0,0,1.79,0l27.77-13.89a2,2,0,0,0,0-3.58l-27.77-13.88A2,2,0,0,0,1519.3,590.79Z"/><polyline class="cls-4" points="1520.2 598.64 1512.14 610.49 1532.29 604.45"/></g></svg>