<svg xmlns="http://www.w3.org/2000/svg" xmlns:xlink="http://www.w3.org/1999/xlink" viewBox="0 0 1920 1080"><defs><style>.cls-1{fill:url(#linear-gradient);}.cls-2{fill:url(#linear-gradient-2);}.cls-3,.cls-4,.cls-5{fill:none;stroke-linecap:round;stroke-miterlimit:10;stroke-width:4px;}.cls-3{stroke:url(#linear-gradient-3);}.cls-4{stroke-dasharray:12.85 12.85;stroke:url(#linear-gradient-4);}.cls-5{stroke:url(#linear-gradient-5);}</style><linearGradient id="linear-gradient" x1="1433.16" y1="551.62" x2="1539.61" y2="445.16" gradientUnits="userSpaceOnUse"><stop offset="0" stop-color="#5a41dc"/><stop offset="1" stop-color="#2d20ab"/></linearGradient><linearGradient id="linear-gradient-2" x1="1447.8" y1="513.87" x2="1576.78" y2="513.87" gradientUnits="userSpaceOnUse"><stop offset="0" stop-color="#0d0b52"/><stop offset="1" stop-color="#0d0b52"/></linearGradient><linearGradient id="linear-gradient-3" x1="1420.44" y1="466.26" x2="1547.33" y2="466.26" gradientUnits="userSpaceOnUse"><stop offset="0" stop-color="#f49ba0"/><stop offset="1" stop-color="#ec758a"/></linearGradient><linearGradient id="linear-gradient-4" x1="1420.44" y1="502.04" x2="1547.33" y2="502.04" xlink:href="#linear-gradient-3"/><linearGradient id="linear-gradient-5" x1="1420.44" y1="537.4" x2="1547.33" y2="537.4" xlink:href="#linear-gradient-3"/></defs><title>street</title><g id="Treadmill"><path class="cls-1" d="M1452.39,549.32l-.78-.09a2.86,2.86,0,0,1-1-.3l-41.91-22.35a9.93,9.93,0,0,1-5.25-8.76h0a9.92,9.92,0,0,1,5.49-8.88l105.79-53.05a14,14,0,0,1,12.52,0L1573.41,479l-116.1,54.17a2.7,2.7,0,0,0-1.5,2.33l-.41,11.25A2.72,2.72,0,0,1,1452.39,549.32Z"/><path class="cls-2" d="M1447.8,542.34h0c0,6.42,4.7,9.32,10.44,6.45l114.55-57.28a7.22,7.22,0,0,0,4-6.45h0a7.21,7.21,0,0,0-10.44-6.45l-114.55,57.28A7.22,7.22,0,0,0,1447.8,542.34Z"/><line class="cls-3" x1="1545.33" y1="464.92" x2="1539.96" y2="467.6"/><path class="cls-4" d="M1528.46,473.33l-102,50.85a7.2,7.2,0,0,0-4,6.45h0v.12"/><path class="cls-5" d="M1424.59,536.63a6.08,6.08,0,0,0,5.59,1.39"/></g></svg>