<svg xmlns="http://www.w3.org/2000/svg" xmlns:xlink="http://www.w3.org/1999/xlink" viewBox="0 0 1920 1080"><defs><style>.cls-1{fill:url(#linear-gradient);}.cls-2{fill:url(#linear-gradient-2);}.cls-3{fill:none;}</style><linearGradient id="linear-gradient" x1="1556.09" y1="365.65" x2="1556.09" y2="245.17" gradientUnits="userSpaceOnUse"><stop offset="0" stop-color="#f49ba0"/><stop offset="1" stop-color="#ec758a"/></linearGradient><linearGradient id="linear-gradient-2" x1="1494.23" y1="323.6" x2="1597.18" y2="323.6" gradientUnits="userSpaceOnUse"><stop offset="0" stop-color="#fb6386"/><stop offset="1" stop-color="#bf4780"/></linearGradient></defs><title>Asset 18</title><g id="Layer_2" data-name="Layer 2"><g id="Layer_35" data-name="Layer 35"><path class="cls-1" d="M1518.6,246.44l-19.48,15.83,86.38,103.38a110.8,110.8,0,0,0,21.3-18.76c10.69-12.08,6.61-42.21-4.08-54.59-9.84-11.4-21.23-23.91-41.38-11.4,0,0-19.7-43.64-42.74-34.46"/><path class="cls-2" d="M1545.46,294.54s-19.7-43.64-42.75-34.47,7.39,70.25,14.55,82.11c5.71,9.47,21.41,34.29,27.51,43.92a4.92,4.92,0,0,0,6.54,1.68c9.16-5.06,31.23-17.79,39.61-27.25,10.68-12.08,6.61-42.21-4.08-54.59C1577,294.54,1565.6,282,1545.46,294.54Z"/></g><g id="Layer_27" data-name="Layer 27"><rect class="cls-3" width="1920" height="1080"/></g></g></svg>