<svg xmlns="http://www.w3.org/2000/svg" viewBox="0 0 98.75 62.53"><defs><style>.cls-1,.cls-2{fill:none;stroke:#FFF;stroke-miterlimit:10;}.cls-1{stroke-width:0.75px;}.cls-2{stroke-linecap:round;stroke-width:2px;}</style></defs><title>logo_mazelith</title><g id="Livello_1" data-name="Livello 1"><polygon class="cls-1" points="0.38 23.48 22.62 10.7 26.73 13.1 27.01 13.32 49.55 0.43 71.62 13.32 76.19 10.64 98.38 23.48 98.38 28.73 76.13 41.5 76.13 46.58 49.38 62.1 22.62 46.64 22.68 41.62 0.38 28.73 0.38 23.48"/><polygon class="cls-1" points="9.39 23.48 22.62 15.95 22.62 20.86 13.49 26.1 9.39 23.48"/><polyline class="cls-1" points="22.62 20.86 22.62 31.27 13.49 26.1"/><polyline class="cls-1" points="22.62 15.95 27.18 18.34 49.38 5.68 49.38 10.59 31.52 20.86 31.52 36.26 26.88 33.65 22.62 31.27"/><polyline class="cls-1" points="0.38 23.48 31.52 41.73 31.52 46.64 44.98 38.99 44.98 33.86 31.52 26.1"/><line class="cls-1" x1="44.98" y1="33.86" x2="31.52" y2="41.73"/><polyline class="cls-1" points="44.98 38.99 44.98 49.49 36 44.1"/><polyline class="cls-1" points="31.52 46.64 44.98 54.51 44.98 49.49"/><polyline class="cls-1" points="31.52 20.86 49.38 31.27 49.38 62.1"/><polyline class="cls-1" points="49.38 31.27 67.34 21.03 67.34 36.6 58.36 31.27 53.65 33.86 53.54 54.51 67.34 46.64 67.34 41.73 98.38 23.48"/><polyline class="cls-1" points="49.38 5.68 71.68 18.46 76.01 15.95 89.36 23.48 67.34 36.6"/><line class="cls-1" x1="71.68" y1="18.46" x2="71.68" y2="34.02"/><line class="cls-1" x1="76.01" y1="15.95" x2="76.01" y2="31.26"/><line class="cls-1" x1="76.01" y1="20.85" x2="85.03" y2="26.06"/><polyline class="cls-1" points="44.98 13.11 44.98 23.61 36 18.46"/><line class="cls-1" x1="49.38" y1="10.59" x2="67.34" y2="21.03"/><polyline class="cls-1" points="49.38 10.59 49.38 26.06 44.98 23.61"/><polyline class="cls-1" points="53.72 13.11 53.72 23.46 49.38 26.06"/><line class="cls-1" x1="62.75" y1="18.36" x2="53.72" y2="23.46"/><line class="cls-1" x1="27.19" y1="18.34" x2="27.03" y2="33.65"/><line class="cls-1" x1="53.65" y1="33.86" x2="67.34" y2="41.73"/><line class="cls-1" x1="53.72" y1="38.99" x2="67.34" y2="46.64"/><line class="cls-1" x1="53.72" y1="49.49" x2="62.75" y2="44.24"/></g><g id="Livello_4" data-name="Livello 4"><path class="cls-2" d="M31.57,36V21.3a.27.27,0,0,1,.39-.23L48.7,30.69a1.08,1.08,0,0,0,1.08,0l16.81-9.83a.56.56,0,0,1,.85.48l0,15.09" transform="translate(0.38 0.26)"/><line class="cls-2" x1="53.88" y1="12.81" x2="53.88" y2="23.12"/><path class="cls-2" d="M49.26,25.25l0-14.44a.44.44,0,0,1,.66-.37l3.62,2" transform="translate(0.38 0.26)"/><line class="cls-2" x1="54.11" y1="33.98" x2="67.38" y2="41.73"/><path class="cls-2" d="M53.73,33.72l4-2.6a1,1,0,0,1,1,0l8.74,5.3" transform="translate(0.38 0.26)"/></g></svg>
